<svg xmlns="http://www.w3.org/2000/svg" width="644.079" height="691.317" viewBox="0 0 644.079 691.317">
  <g id="Group_9" data-name="Group 9" transform="translate(-3343.963 -106.889)">
    <path id="Path_1" data-name="Path 1" d="M60.241,315.2c6.266,42.728,27.948,39.626,38.853,49.966a146.914,146.914,0,0,1,34.57,50.382c4.74,11.5,8.038,23.874,7.154,36.283-2.505,35.2-8.12,117.316-34.6,140.631-3.752,3.334-7.5,6.822-9.689,11.317-7.018,14.424,4.912,31.046,18.053,40.244,46.8,32.74,250.487,60.862,295.876,26.2,23.505-17.954,43.707-42.368,72.192-50.351,18.212-5.078,33.172,31.874,52.017,33.44,28.256,2.341,31.145-7.618,59.448-9.289,9.935-.614,20.324-1.572,28.645-7.031,21.068-13.8,9.2-71.8,24.4-91.883,10.93-14.43,29.6-19.993,45.856-27.969,25.018-12.345-52.07-191.6-37.892-215.631,13.048-22.21,19.809-47.459,26.4-72.352,4.974-18.7,9.966-38.291,5.753-57.185s-20.84-36.535-40.121-34.877c-14.8,1.271-26.582,12.968-40.839,17.156-34.153,10.058-138.73-162.77-174.16-159.4-22.308,2.118-40.3,19.035-53.9,36.842S353.141,69.55,335.18,82.96c-27.939,20.877-84.8,60.267-119.005,53.506s-67.016-20.067-101.6-24.5c-20.374-2.61-35.989,9.53-54.336,16.2C43.4,134.3,66.48,296.318,60.241,315.2Z" transform="translate(3289.998 112.085)" fill="#6c63ff" opacity="0.1"/>
    <ellipse id="Ellipse_1" data-name="Ellipse 1" cx="44.665" cy="13.57" rx="44.665" ry="13.57" transform="translate(3424.481 627.745)" fill="#6c63ff" opacity="0.1"/>
    <ellipse id="Ellipse_98" data-name="Ellipse 98" cx="44.665" cy="13.57" rx="44.665" ry="13.57" transform="translate(3729.22 395.78)" fill="#6c63ff" opacity="0.1"/>
    <ellipse id="Ellipse_99" data-name="Ellipse 99" cx="44.665" cy="13.57" rx="44.665" ry="13.57" transform="translate(3788.348 387.82)" fill="#6c63ff" opacity="0.1"/>
    <ellipse id="Ellipse_2" data-name="Ellipse 2" cx="119.289" cy="7.915" rx="119.289" ry="7.915" transform="translate(3368.514 324.524)" fill="#6c63ff" opacity="0.1"/>
    <g id="Group_1" data-name="Group 1" transform="translate(3376.451 152.423)" opacity="0.5">
      <path id="Path_2" data-name="Path 2" d="M704.359,68.4h0a6.239,6.239,0,0,1,6.239,6.239V248.1H698.12V74.632a6.239,6.239,0,0,1,6.239-6.232Z" transform="translate(-661.714 -68.4)" fill="#6c63ff"/>
      <path id="Path_3" data-name="Path 3" d="M927.269,68.4h0a6.239,6.239,0,0,1,6.239,6.239V248.1H921V74.632a6.239,6.239,0,0,1,6.269-6.232Z" transform="translate(-747.738 -68.4)" fill="#6c63ff"/>
      <rect id="Rectangle_1" data-name="Rectangle 1" width="12.477" height="222.182" rx="6.239" transform="translate(222.182 26.299) rotate(90)" fill="#6c63ff"/>
      <rect id="Rectangle_2" data-name="Rectangle 2" width="9.775" height="46.863" rx="4.888" transform="translate(22.922 9.1)" fill="#6c63ff"/>
      <rect id="Rectangle_3" data-name="Rectangle 3" width="9.775" height="38.101" rx="4.888" transform="translate(13.146 13.484)" fill="#6c63ff"/>
      <rect id="Rectangle_4" data-name="Rectangle 4" width="9.775" height="46.863" rx="4.888" transform="translate(199.254 55.963) rotate(180)" fill="#6c63ff"/>
      <rect id="Rectangle_5" data-name="Rectangle 5" width="9.775" height="38.101" rx="4.888" transform="translate(209.03 51.579) rotate(180)" fill="#6c63ff"/>
    </g>
    <g id="Group_2" data-name="Group 2" transform="translate(3464.645 225.027)" opacity="0.5">
      <path id="Path_4" data-name="Path 4" d="M792.914,186.64h25.507a10.439,10.439,0,0,1,10.439,10.439V240.9H782.5V197.079A10.439,10.439,0,0,1,792.914,186.64Z" transform="translate(-782.475 -186.64)" fill="#6c63ff"/>
      <rect id="Rectangle_6" data-name="Rectangle 6" width="6.785" height="22.615" transform="translate(19.784 50.32)" fill="#6c63ff"/>
      <rect id="Rectangle_7" data-name="Rectangle 7" width="6.785" height="22.615" transform="translate(6.214 75.76)" fill="#6c63ff"/>
      <rect id="Rectangle_8" data-name="Rectangle 8" width="6.785" height="22.615" transform="translate(34.484 75.76)" fill="#6c63ff"/>
      <rect id="Rectangle_9" data-name="Rectangle 9" width="46.36" height="6.22" transform="translate(0 71.234)" fill="#6c63ff"/>
    </g>
    <ellipse id="Ellipse_3" data-name="Ellipse 3" cx="254.407" cy="18.654" rx="254.407" ry="18.654" transform="translate(3420.527 580.826)" fill="#6c63ff" opacity="0.1"/>
    <path id="Path_5" data-name="Path 5" d="M670.36,577.152s17.525,7.915,26,7.915a111.254,111.254,0,0,1,14.123,4.525c5.078,2.266,24.875,3.389,24.875,3.389s23.18,8.48,26,12.44,11.3-14.123,11.3-14.123l-4.525-11.3L682.794,563.6Z" transform="translate(3070.442 -44.104)" fill="#ffb9b9"/>
    <path id="Path_6" data-name="Path 6" d="M670.36,577.152s17.525,7.915,26,7.915a111.254,111.254,0,0,1,14.123,4.525c5.078,2.266,24.875,3.389,24.875,3.389s23.18,8.48,26,12.44,11.3-14.123,11.3-14.123l-4.525-11.3L682.794,563.6Z" transform="translate(3070.442 -44.104)" opacity="0.05"/>
    <path id="Path_7" data-name="Path 7" d="M811.23,614.105s10.739,14.123,6.22,22.615-2.825,8.48,0,9.045,18.654,3.961,20.355-8.48,5.09-40.139,5.09-40.139l-23.211-2.266S825.93,615.8,811.23,614.105Z" transform="translate(3016.071 -56.177)" fill="#737a9d"/>
    <path id="Path_8" data-name="Path 8" d="M593.94,549.6l48.619,22.615s15.265-11.875,14.123-18.09l-56.534-13.57Z" transform="translate(3099.937 -35.211)" fill="#4c4c78"/>
    <path id="Path_9" data-name="Path 9" d="M593.94,549.6l48.619,22.615s15.265-11.875,14.123-18.09l-56.534-13.57Z" transform="translate(3099.937 -35.211)" opacity="0.1"/>
    <path id="Path_10" data-name="Path 10" d="M845.665,577.912l-5.109,12.434-11.851,2.812a75.715,75.715,0,0,0-10.617-7.418c-6.38-3.684-14.774-7.289-22.719-6.718,0,0-31.66-5.09-33.354-7.368,0,0-20.355-4.525-24.875-3.961-2.18.27-6.865-1.3-11.126-3-4.575-1.842-8.664-3.789-8.664-3.789l14.7-23.18a39.519,39.519,0,0,0,5.281,1.842c5.618,1.646,15.732,3.782,30.339,3.782,23.745,0,56.534,24.31,56.534,24.31s.326.111.884.276c2.456.743,9.456,2.493,12.686-.276C841.7,564.342,845.665,577.912,845.665,577.912Z" transform="translate(3052.305 -34.119)" fill="#ffb9b9"/>
    <path id="Path_11" data-name="Path 11" d="M908.986,596.426l-5.109,12.434-11.851,2.812a75.714,75.714,0,0,0-10.617-7.418c17.242,1.3,6.945-17.739,6.945-17.739h.037c2.456.743,9.456,2.493,12.686-.276C905.026,582.856,908.986,596.426,908.986,596.426Z" transform="translate(2988.984 -52.633)" opacity="0.1"/>
    <path id="Path_12" data-name="Path 12" d="M881.52,604.464s13.674,19.176,7.921,29.977-3.6,10.795,0,11.519S913.2,651,915.353,635.166c1.658-12.176.2-35.547-.559-45.69a4.845,4.845,0,0,0-5.268-4.458l-20,1.842S900.236,606.625,881.52,604.464Z" transform="translate(2988.941 -52.362)" fill="#737a9d"/>
    <path id="Path_13" data-name="Path 13" d="M262.71,527.9l.565,27.705,6.22,4.519H290.98l3.954-5.649V527.9l-6.22-5.655H268.365Z" transform="translate(3283.043 43.033)" fill="#6c63ff"/>
    <path id="Path_14" data-name="Path 14" d="M356.1,648.28s3.961,25.439,0,27.705l-2.825-.565-.565-27.134Z" transform="translate(3193.043 -76.787)" fill="#fff" opacity="0.2"/>
    <path id="Path_15" data-name="Path 15" d="M433.722,641.755l4.525-4.525h21.491l4.525,4.525s5.655,16.395,1.13,27.134l-5.1,5.09H438.8l-5.09-4.525Z" transform="translate(3161.781 -72.522)" fill="#6c63ff"/>
    <path id="Path_16" data-name="Path 16" d="M262.71,527.9l.565,27.705,6.22,4.519H290.98l3.954-5.649V527.9l-6.22-5.655H268.365Z" transform="translate(3283.043 43.033)" opacity="0.1"/>
    <path id="Path_17" data-name="Path 17" d="M433.722,641.755l4.525-4.525h21.491l4.525,4.525s5.655,16.395,1.13,27.134l-5.1,5.09H438.8l-5.09-4.525Z" transform="translate(3161.781 -72.522)" opacity="0.1"/>
    <path id="Path_18" data-name="Path 18" d="M438.8,645.73s4.525,19.79,0,26.569h-5.09V644.6Z" transform="translate(3161.781 -75.367)" fill="#fff" opacity="0.2"/>
    <path id="Path_19" data-name="Path 19" d="M405.19,491.76s2.26,22.05,2.26,24.875-1.13,21.491,2.26,39.575-2.26,40.7-2.26,40.7H426.1l7.915-61.06-5.655-32.225-2.26-10.175Z" transform="translate(3172.788 -16.376)" fill="#ffb9b9"/>
    <path id="Path_20" data-name="Path 20" d="M405.19,491.76s2.26,22.05,2.26,24.875-1.13,21.491,2.26,39.575-2.26,40.7-2.26,40.7H426.1l7.915-61.06-5.655-32.225-2.26-10.175Z" transform="translate(3172.788 -16.376)" opacity="0.05"/>
    <path id="Path_21" data-name="Path 21" d="M391.666,400.341s-24.875.565-5.09,41.834c0,0,5.09,16.96,5.09,19.79s25.439,2.825,28.246,0-4.525-26-4.525-36.75S408.061,396.951,391.666,400.341Z" transform="translate(3182.922 19.074)" fill="#cbcdda"/>
    <path id="Path_22" data-name="Path 22" d="M391.666,400.341s-24.875.565-5.09,41.834c0,0,5.09,16.96,5.09,19.79s25.439,2.825,28.246,0-4.525-26-4.525-36.75S408.061,396.951,391.666,400.341Z" transform="translate(3182.922 19.074)" opacity="0.05"/>
    <path id="Path_23" data-name="Path 23" d="M343.062,361s21.491,23.18,39.575,6.22l-2.26,59.93s-29.4-35.614-49.737-32.789Z" transform="translate(3201.562 34.093)" fill="#ffb9b9"/>
    <path id="Path_24" data-name="Path 24" d="M737.291,539.663c-.86,6.625-3.561,20.576-11.317,25.1-4.575-1.842-8.664-3.789-8.664-3.789l14.7-23.18A39.515,39.515,0,0,0,737.291,539.663Z" transform="translate(3052.321 -34.142)" opacity="0.1"/>
    <path id="Path_25" data-name="Path 25" d="M672.359,500.479s-1.695,27.705-15.265,29.965l-81.961-14.786a24.74,24.74,0,0,1-10.893-4.912,56.3,56.3,0,0,1-9.769-9.382c-1.3-1.768-2.088-3.457-1.959-4.851.565-6.22,25.44-20.92,16.96-46.924a15.5,15.5,0,0,1,3.979-2.284c7.08-2.941,23.376-5.1,46.9,19.244C620.35,466.578,663.879,501.633,672.359,500.479Z" transform="translate(3115.932 1.456)" fill="#4c4c78"/>
    <path id="Path_26" data-name="Path 26" d="M296.78,531.579l.565,27.705,6.214,4.525h21.485L329,558.155V531.579l-6.22-5.649H302.429Z" transform="translate(3269.894 41.609)" fill="#6c63ff"/>
    <path id="Path_27" data-name="Path 27" d="M390.169,652s3.961,25.439,0,27.705l-2.825-.565L386.78,652Z" transform="translate(3179.894 -78.223)" fill="#fff" opacity="0.2"/>
    <path id="Path_28" data-name="Path 28" d="M488.06,644.515l4.525-4.525h21.491l4.525,4.525s5.655,16.395,1.13,27.134l-5.09,5.09H493.15l-5.09-4.525Z" transform="translate(3140.803 -73.587)" fill="#6c63ff"/>
    <path id="Path_29" data-name="Path 29" d="M493.14,648.49s4.525,19.79,0,26.569h-5.09v-27.7Z" transform="translate(3140.807 -76.432)" fill="#fff" opacity="0.2"/>
    <path id="Path_30" data-name="Path 30" d="M436.278,664.86h30.585a4.587,4.587,0,0,1,4.335,4.808h0a4.591,4.591,0,0,1-4.335,4.808H436.278a4.64,4.64,0,0,1-4.3-5.367h0A4.516,4.516,0,0,1,436.278,664.86Z" transform="translate(3162.46 -83.186)" fill="#6c63ff"/>
    <path id="Path_31" data-name="Path 31" d="M571.156,492.794c-6.048,4.237-12.422,7.012-16.7,9.376-1.3-1.768-2.088-3.457-1.959-4.851.565-6.22,25.439-20.92,16.96-46.925a15.5,15.5,0,0,1,3.979-2.284,17.265,17.265,0,0,0,3.936-.54S582.46,484.879,571.156,492.794Z" transform="translate(3115.936 0.68)" opacity="0.1"/>
    <path id="Path_32" data-name="Path 32" d="M375.942,403.647s8.48,8.48,16.677,13.853c7.565,4.955-5.938-44.947-5.938-44.947s8.375-6.754,13.294-10.764a16.849,16.849,0,0,1,11.716-3.807c11.317.731,32.047,5.489,48.773,28.43,24.31,33.354,46.36,26.569,46.36,26.569s5.09,37.315-6.22,45.23-23.745,10.739-21.491,15.265-10.175-22.05-38.445-26.569S381.3,422.6,381.874,412.986C381.88,412.98,373.683,406.49,375.942,403.647Z" transform="translate(3184.229 35.27)" fill="#cbcdda"/>
    <path id="Path_33" data-name="Path 33" d="M354.435,376.47a28.411,28.411,0,0,0-.43-4.875c-7.405-3.684-6.355-8.695-6.355-8.695l-12.44,33.354c4.55-.614,9.554.663,14.577,3.07C356.4,394.1,354.435,385.49,354.435,376.47Z" transform="translate(3199.798 33.36)" opacity="0.1"/>
    <circle id="Ellipse_4" data-name="Ellipse 4" cx="28.27" cy="28.27" r="28.27" transform="translate(3501.089 380.97)" fill="#ffb9b9"/>
    <path id="Path_34" data-name="Path 34" d="M276.461,364.847a7.262,7.262,0,0,1-2.843,4.3,5.388,5.388,0,0,1-6.024-.86,10.158,10.158,0,0,1-2.984-5.637,18.925,18.925,0,0,1,.307-9.241c.737-2.548,2.008-4.912,2.542-7.522.571-2.775.282-5.68.921-8.443.866-3.746,3.334-6.883,5.741-9.886a10.205,10.205,0,0,1,6.65-4.421l11.832-3.568a39.985,39.985,0,0,1,6.889-1.646,23.869,23.869,0,0,1,8.959.786,20.637,20.637,0,0,1,6.5,2.9,24.027,24.027,0,0,1,5.127,5.189c6.257,8.179,9.825,21.559,16.278,29.609-2.548.786-5.1-1.842-7.645-1.044a1.793,1.793,0,0,1-1.148.092,1.885,1.885,0,0,1-.841-.933,19.569,19.569,0,0,0-10-8.56c-3.132-1.185-7.368-1.179-9.082,1.695-1.161,1.94-.694,4.39-.387,6.632s.252,4.912-1.523,6.294a6.582,6.582,0,0,1-3.3,1.118,36.4,36.4,0,0,1-16.37-1.6c-1.842-.614-3.715-2.536-5.661-1.922C277.762,359,277.154,362.618,276.461,364.847Z" transform="translate(3227.213 50.767)" opacity="0.1"/>
    <path id="Path_35" data-name="Path 35" d="M275.451,363.84a7.261,7.261,0,0,1-2.843,4.3,5.388,5.388,0,0,1-6.024-.86,10.158,10.158,0,0,1-2.984-5.637,18.925,18.925,0,0,1,.307-9.241c.737-2.548,2.008-4.912,2.542-7.522.571-2.775.282-5.68.921-8.443.866-3.746,3.334-6.883,5.741-9.886a10.205,10.205,0,0,1,6.65-4.421l11.832-3.568a39.977,39.977,0,0,1,6.889-1.639,23.869,23.869,0,0,1,8.959.786,20.639,20.639,0,0,1,6.5,2.9,24.026,24.026,0,0,1,5.127,5.189c6.257,8.179,9.825,21.559,16.278,29.609-2.548.786-5.1-1.842-7.645-1.044a1.793,1.793,0,0,1-1.148.092,1.885,1.885,0,0,1-.853-.933,19.57,19.57,0,0,0-10-8.56c-3.132-1.185-7.368-1.179-9.082,1.695-1.161,1.94-.694,4.39-.387,6.632s.252,4.912-1.523,6.294a6.582,6.582,0,0,1-3.3,1.118,36.4,36.4,0,0,1-16.37-1.6c-1.842-.614-3.715-2.536-5.661-1.922C276.752,357.995,276.144,361.611,275.451,363.84Z" transform="translate(3227.603 51.153)" fill="#b96b6b"/>
    <g id="Group_3" data-name="Group 3" transform="translate(3559.734 406.281)" opacity="0.1">
      <path id="Path_36" data-name="Path 36" d="M395.6,379.22l-1.916,1.547s7.915,29.247,8.228,40.735C405.948,420.409,398.175,389.118,395.6,379.22Z" transform="translate(-382.504 -379.22)"/>
      <path id="Path_37" data-name="Path 37" d="M501.676,482.412c-11.3,7.915-23.745,10.739-21.491,15.265s-10.175-22.05-38.445-26.569c-26.52-4.243-55.527-21.921-58.548-32.028-4.237-3.623-7.319-6.7-7.319-6.7-2.26,2.825,5.938,9.327,5.938,9.327-.565,9.61,30.53,29.4,58.794,33.919s40.7,31.095,38.445,26.569,10.175-7.368,21.491-15.265c3.236-2.266,5.127-6.939,6.183-12.459C505.63,477.966,504.009,480.8,501.676,482.412Z" transform="translate(-375.478 -399.738)"/>
    </g>
    <path id="Path_38" data-name="Path 38" d="M466.747,548.948c-1.695,2.26-2.825,25.439-2.825,25.439s6.754,33.354-14.123,29.965-2.825-27.134-2.825-27.134l-2.825-32.79c-10.74-28.246-8.48-48.619-8.48-48.619l-2.008-18.464-.823-7.54,24.31-5.655c-.663.884-.381,6.4.215,12.8.927,10.033,2.61,22.247,2.61,22.247C465.046,504.848,468.442,546.682,466.747,548.948Z" transform="translate(3162.116 -5.719)" fill="#ffb9b9"/>
    <path id="Path_39" data-name="Path 39" d="M423.886,381.01s-24.875.565-5.09,41.834c0,0,5.09,16.96,5.09,19.79s25.439,2.825,28.246,0-4.525-26-4.525-36.75S440.281,377.614,423.886,381.01Z" transform="translate(3170.487 26.536)" opacity="0.1"/>
    <path id="Path_40" data-name="Path 40" d="M457.331,476.953c-5.281,1.443-18.225,1.572-23.708.393l-.823-7.54,24.31-5.655C456.459,465.028,456.741,470.542,457.331,476.953Z" transform="translate(3162.131 -5.719)" opacity="0.1"/>
    <path id="Path_41" data-name="Path 41" d="M422.046,381.01s-24.875.565-5.09,41.834c0,0,5.09,16.96,5.09,19.79s25.439,2.825,28.246,0-4.525-26-4.525-36.75S438.441,377.614,422.046,381.01Z" transform="translate(3171.197 26.536)" fill="#cbcdda"/>
    <g id="Group_4" data-name="Group 4" transform="translate(3756.389 340.26)" opacity="0.5">
      <path id="Path_42" data-name="Path 42" d="M61.879,409.5l-18,.368-2.935,4.04v13.963l3.672,2.573H61.879l3.678-4.04V413.178Z" transform="translate(-40.94 -409.494)" fill="#6c63ff"/>
      <path id="Path_43" data-name="Path 43" d="M153.133,527.61s-16.536,2.573-18,0l.368-1.842,17.635-.368Z" transform="translate(-132.557 -525.4)" fill="#fff" opacity="0.2"/>
      <path id="Path_44" data-name="Path 44" d="M154.275,591.23l2.941,2.941v13.963l-2.941,2.941s-10.654,3.684-17.635.737l-3.31-3.31V594.54l2.941-3.31Z" transform="translate(-131.862 -550.808)" fill="#6c63ff"/>
      <path id="Path_45" data-name="Path 45" d="M155.387,594.54s-12.858,2.941-17.267,0v-3.31h18Z" transform="translate(-133.711 -550.808)" fill="#fff" opacity="0.2"/>
      <path id="Path_46" data-name="Path 46" d="M152.141,557.588v19.876a2.984,2.984,0,0,1-3.125,2.818h0a2.984,2.984,0,0,1-3.125-2.819V557.588a3.024,3.024,0,0,1,3.488-2.8h0a2.941,2.941,0,0,1,2.763,2.8Z" transform="translate(-136.71 -536.735)" fill="#6c63ff"/>
      <path id="Path_47" data-name="Path 47" d="M108.835,410.42l-18,.368-2.941,4.04v13.963l3.678,2.573h17.267l3.672-4.04V414.1Z" transform="translate(-59.061 -409.849)" fill="#6c63ff"/>
      <path id="Path_48" data-name="Path 48" d="M200.083,528.541s-16.536,2.573-18,0l.368-1.842,17.635-.368Z" transform="translate(-150.678 -525.759)" fill="#fff" opacity="0.2"/>
      <path id="Path_49" data-name="Path 49" d="M201.225,592.156l2.941,2.941V609.06L201.225,612s-10.654,3.684-17.635.737l-3.31-3.31V595.46l2.941-3.31Z" transform="translate(-149.984 -551.163)" fill="#6c63ff"/>
      <path id="Path_50" data-name="Path 50" d="M202.347,595.46s-12.858,2.941-17.267,0v-3.31h18Z" transform="translate(-151.836 -551.163)" fill="#fff" opacity="0.2"/>
      <path id="Path_51" data-name="Path 51" d="M199.071,558.508v19.876a2.984,2.984,0,0,1-3.125,2.818h0a2.984,2.984,0,0,1-3.125-2.818V558.508a3.024,3.024,0,0,1,3.488-2.8h0A2.941,2.941,0,0,1,199.071,558.508Z" transform="translate(-154.824 -537.09)" fill="#6c63ff"/>
      <path id="Path_52" data-name="Path 52" d="M170.942,427.74l-14.823.3-2.419,3.328v11.495l3.027,2.112h14.215l3.021-3.328V430.761Z" transform="translate(-84.461 -416.534)" fill="#6c63ff"/>
      <path id="Path_53" data-name="Path 53" d="M261.963,545.461s-13.613,2.118-14.823,0l.3-1.51,14.516-.3Z" transform="translate(-175.789 -532.444)" fill="#fff" opacity="0.2"/>
      <path id="Path_54" data-name="Path 54" d="M262.912,597.83l2.419,2.419v11.495l-2.419,2.419s-8.768,3.027-14.516.614l-2.726-2.72V600.55l2.419-2.72Z" transform="translate(-175.222 -553.355)" fill="#6c63ff"/>
      <path id="Path_55" data-name="Path 55" d="M263.825,600.55s-10.586,2.419-14.215,0v-2.72h14.823Z" transform="translate(-176.742 -553.355)" fill="#fff" opacity="0.2"/>
      <path id="Path_56" data-name="Path 56" d="M261.156,570.123v16.364a2.456,2.456,0,0,1-2.573,2.309h0a2.456,2.456,0,0,1-2.573-2.321V570.123a2.487,2.487,0,0,1,2.874-2.3h0a2.419,2.419,0,0,1,2.272,2.3Z" transform="translate(-179.213 -541.761)" fill="#6c63ff"/>
      <path id="Path_57" data-name="Path 57" d="M209.592,428.49l-14.823.307-2.419,3.322v11.495l3.027,2.118h14.215l3.027-3.328V431.517Z" transform="translate(-99.379 -416.823)" fill="#6c63ff"/>
      <path id="Path_58" data-name="Path 58" d="M300.623,546.221s-13.613,2.118-14.823,0l.3-1.51,14.516-.3Z" transform="translate(-190.711 -532.737)" fill="#fff" opacity="0.2"/>
      <path id="Path_59" data-name="Path 59" d="M301.566,598.582,303.985,601V612.5l-2.419,2.419s-8.768,3.027-14.516.614l-2.72-2.72V601.29l2.419-2.72Z" transform="translate(-190.143 -553.641)" fill="#6c63ff"/>
      <path id="Path_60" data-name="Path 60" d="M302.485,601.29s-10.586,2.419-14.215,0v-2.72h14.817Z" transform="translate(-191.664 -553.641)" fill="#fff" opacity="0.2"/>
      <path id="Path_61" data-name="Path 61" d="M299.766,570.883v16.364a2.456,2.456,0,0,1-2.573,2.321h0a2.456,2.456,0,0,1-2.573-2.321V570.883a2.487,2.487,0,0,1,2.874-2.3h0A2.419,2.419,0,0,1,299.766,570.883Z" transform="translate(-194.115 -542.054)" fill="#6c63ff"/>
    </g>
    <g id="Group_5" data-name="Group 5" transform="translate(3441.862 590.583)" opacity="0.8">
      <path id="Path_62" data-name="Path 62" d="M198.046,704.377s-8.7-2.947-12.895,4.722a13.988,13.988,0,0,0,.184,13.466c2.751,4.974,8.418,11.427,19.158,10.856,9.112-.485,12.139-7.442,12.962-13.908a14.289,14.289,0,0,0-18.974-15.3Z" transform="translate(-183.515 -688.639)" fill="#6c63ff"/>
      <path id="Path_63" data-name="Path 63" d="M187.184,723.083A13.988,13.988,0,0,1,187,709.618c4.188-7.669,12.895-4.722,12.895-4.722l.448-.16a14.16,14.16,0,0,1,10.224.227,14.159,14.159,0,0,0-12.072-1.154l-.448.16s-8.7-2.947-12.895,4.722a13.988,13.988,0,0,0,.184,13.466,21.2,21.2,0,0,0,9.825,9.315A21.572,21.572,0,0,1,187.184,723.083Z" transform="translate(-183.515 -688.476)" fill="#fff" opacity="0.1"/>
      <path id="Path_64" data-name="Path 64" d="M199.86,711s3.224,2.536,11.053,0" transform="translate(-189.824 -691.578)" opacity="0.2"/>
      <path id="Path_65" data-name="Path 65" d="M198.74,681s5.526,14.983,5.072,18.9l4.378-.461s-7.368-13.134-5.526-18.421Z" transform="translate(-189.391 -679.999)" fill="#6c63ff"/>
      <path id="Path_66" data-name="Path 66" d="M198.74,681s5.526,14.983,5.072,18.9l4.378-.461s-7.368-13.134-5.526-18.421Z" transform="translate(-189.391 -679.999)" opacity="0.2"/>
      <path id="Path_67" data-name="Path 67" d="M224.755,681.6s-8.707-4.452-12.6-.774S207.66,693.9,207.66,693.9,221.856,695.863,224.755,681.6Z" transform="translate(-192.834 -679.369)" fill="#6c63ff"/>
      <path id="Path_68" data-name="Path 68" d="M224.755,681.6s-8.707-4.452-12.6-.774S207.66,693.9,207.66,693.9,221.856,695.863,224.755,681.6Z" transform="translate(-192.834 -679.369)" fill="#fff" opacity="0.1"/>
      <path id="Path_69" data-name="Path 69" d="M207.66,695.281s2.284-10.911,17.095-12.281" transform="translate(-192.834 -680.771)" fill="none" stroke="#6c63ff" stroke-miterlimit="10" stroke-width="1"/>
    </g>
    <path id="Path_70" data-name="Path 70" d="M257.866,726.467s-8.7-2.947-12.895,4.722a13.988,13.988,0,0,0,.184,13.466c2.751,4.974,8.418,11.427,19.158,10.856,9.112-.485,12.139-7.442,12.962-13.908a14.289,14.289,0,0,0-18.974-15.3Z" transform="translate(3235.258 -106.582)" fill="#6c63ff"/>
    <path id="Path_71" data-name="Path 71" d="M247.034,745.183a13.988,13.988,0,0,1-.184-13.466c4.188-7.669,12.895-4.722,12.895-4.722l.448-.16a14.16,14.16,0,0,1,10.224.227,14.16,14.16,0,0,0-12.072-1.154l-.448.16s-8.7-2.947-12.895,4.722a13.988,13.988,0,0,0,.184,13.466,21.2,21.2,0,0,0,9.825,9.315A21.571,21.571,0,0,1,247.034,745.183Z" transform="translate(3235.247 -106.423)" fill="#fff" opacity="0.1"/>
    <path id="Path_72" data-name="Path 72" d="M259.71,733.09s3.224,2.536,11.053,0" transform="translate(3228.938 -109.521)" opacity="0.2"/>
    <path id="Path_73" data-name="Path 73" d="M258.58,703.07s5.526,14.982,5.072,18.9l4.378-.461s-7.368-13.134-5.526-18.421Z" transform="translate(3229.374 -97.934)" fill="#6c63ff"/>
    <path id="Path_74" data-name="Path 74" d="M258.58,703.07s5.526,14.982,5.072,18.9l4.378-.461s-7.368-13.134-5.526-18.421Z" transform="translate(3229.374 -97.934)" opacity="0.2"/>
    <path id="Path_75" data-name="Path 75" d="M284.6,703.7s-8.707-4.452-12.6-.774S267.51,716,267.51,716,281.706,717.956,284.6,703.7Z" transform="translate(3225.928 -97.316)" fill="#6c63ff"/>
    <path id="Path_76" data-name="Path 76" d="M284.6,703.7s-8.707-4.452-12.6-.774S267.51,716,267.51,716,281.706,717.956,284.6,703.7Z" transform="translate(3225.928 -97.316)" fill="#fff" opacity="0.1"/>
    <path id="Path_77" data-name="Path 77" d="M267.51,717.421s2.284-10.911,17.095-12.281" transform="translate(3225.928 -98.733)" fill="none" stroke="#6c63ff" stroke-miterlimit="10" stroke-width="1"/>
    <path id="Path_78" data-name="Path 78" d="M141.319,659.532s.854-.952-.749-1.332v-1.566h.964a8.265,8.265,0,0,0-6.546-8.081v-1.9h.252V644.2h-6.2v2.456h.178v1.922a8.265,8.265,0,0,0-6.435,8.056h.86v1.5s-2.039.964,0,2.683,1.719,3,1.719,3-.86,3.218-2.573,3.647v29.934a6.65,6.65,0,0,0,6.65,6.65h5.256a6.65,6.65,0,0,0,6.625-6.644v-29.94s-3-2.253-2.456-3.647a33.776,33.776,0,0,1,2.456-4.292Z" transform="translate(3281.806 -75.212)" fill="#6c63ff"/>
  </g>
</svg>
